<svg width="1200" height="760" viewBox="0 0 1200 760" fill="none" xmlns="http://www.w3.org/2000/svg">
  <rect width="1200" height="760" fill="#EAF3FA"/>
  <rect y="530" width="1200" height="230" fill="#D7E3EC"/>
  <rect x="215" y="180" width="485" height="420" fill="#234965"/>
  <rect x="700" y="250" width="270" height="350" fill="#395E78"/>
  <rect x="280" y="120" width="420" height="480" fill="#315C7B"/>
  <g fill="#8FC1DF">
    <rect x="310" y="155" width="65" height="55"/><rect x="398" y="155" width="65" height="55"/><rect x="486" y="155" width="65" height="55"/><rect x="574" y="155" width="65" height="55"/>
    <rect x="310" y="238" width="65" height="55"/><rect x="398" y="238" width="65" height="55"/><rect x="486" y="238" width="65" height="55"/><rect x="574" y="238" width="65" height="55"/>
    <rect x="310" y="321" width="65" height="55"/><rect x="398" y="321" width="65" height="55"/><rect x="486" y="321" width="65" height="55"/><rect x="574" y="321" width="65" height="55"/>
    <rect x="310" y="404" width="65" height="55"/><rect x="398" y="404" width="65" height="55"/><rect x="486" y="404" width="65" height="55"/><rect x="574" y="404" width="65" height="55"/>
    <rect x="735" y="285" width="55" height="55"/><rect x="812" y="285" width="55" height="55"/><rect x="889" y="285" width="55" height="55"/>
    <rect x="735" y="370" width="55" height="55"/><rect x="812" y="370" width="55" height="55"/><rect x="889" y="370" width="55" height="55"/>
    <rect x="735" y="455" width="55" height="55"/><rect x="812" y="455" width="55" height="55"/><rect x="889" y="455" width="55" height="55"/>
  </g>
  <rect x="350" y="520" width="250" height="80" fill="#163349"/>
  <path d="M320 95C389 62 507 57 640 87" stroke="#42B928" stroke-width="18" stroke-linecap="round"/>
  <text x="420" y="104" font-family="Arial, sans-serif" font-size="48" font-weight="700" fill="#FFFFFF">安徽杰鑫机电</text>
  <g fill="#8FA8B7">
    <rect x="64" y="610" width="1020" height="28"/><rect x="155" y="660" width="870" height="18"/>
  </g>
  <g fill="#46703B">
    <circle cx="1080" cy="575" r="56"/><rect x="1070" y="575" width="18" height="92"/>
    <circle cx="135" cy="590" r="45"/><rect x="128" y="590" width="14" height="78"/>
  </g>
</svg>
