<svg width="420" height="420" viewBox="0 0 420 420" fill="none" xmlns="http://www.w3.org/2000/svg">
  <rect width="420" height="420" fill="#FFFFFF"/>
  <g fill="#111827">
    <rect x="40" y="40" width="90" height="18"/><rect x="40" y="58" width="18" height="72"/><rect x="112" y="58" width="18" height="72"/><rect x="58" y="112" width="72" height="18"/><rect x="70" y="70" width="30" height="30"/>
    <rect x="290" y="40" width="90" height="18"/><rect x="290" y="58" width="18" height="72"/><rect x="362" y="58" width="18" height="72"/><rect x="308" y="112" width="72" height="18"/><rect x="320" y="70" width="30" height="30"/>
    <rect x="40" y="290" width="90" height="18"/><rect x="40" y="308" width="18" height="72"/><rect x="112" y="308" width="18" height="72"/><rect x="58" y="362" width="72" height="18"/><rect x="70" y="320" width="30" height="30"/>
    <rect x="170" y="62" width="24" height="24"/><rect x="214" y="52" width="18" height="58"/><rect x="250" y="78" width="20" height="20"/>
    <rect x="158" y="142" width="28" height="28"/><rect x="206" y="138" width="22" height="58"/><rect x="250" y="150" width="62" height="22"/><rect x="338" y="154" width="26" height="26"/>
    <rect x="54" y="160" width="58" height="22"/><rect x="134" y="190" width="26" height="26"/><rect x="190" y="210" width="92" height="24"/><rect x="320" y="210" width="48" height="22"/>
    <rect x="62" y="232" width="26" height="26"/><rect x="114" y="248" width="78" height="22"/><rect x="220" y="258" width="26" height="26"/><rect x="274" y="252" width="24" height="76"/><rect x="330" y="266" width="32" height="32"/>
    <rect x="160" y="305" width="24" height="78"/><rect x="206" y="315" width="24" height="24"/><rect x="244" y="350" width="46" height="24"/><rect x="314" y="330" width="62" height="22"/><rect x="350" y="370" width="24" height="24"/>
  </g>
  <circle cx="210" cy="210" r="48" fill="#111827"/>
  <circle cx="194" cy="204" r="8" fill="#FFFFFF"/><circle cx="226" cy="204" r="8" fill="#FFFFFF"/>
  <path d="M185 230C202 240 220 240 237 230" stroke="#FFFFFF" stroke-width="7" stroke-linecap="round"/>
</svg>
